<mxfile host="app.diagrams.net" agent="Mozilla/5.0 (Windows NT 10.0; Win64; x64) AppleWebKit/537.36 (KHTML, like Gecko) Chrome/133.0.0.0 Safari/537.36" version="26.0.16">
  <diagram name="Page-1" id="NIMjzp2n54W_8VG1BMMu">
    <mxGraphModel dx="1524" dy="418" grid="0" gridSize="10" guides="1" tooltips="1" connect="1" arrows="1" fold="1" page="0" pageScale="1" pageWidth="850" pageHeight="1100" math="0" shadow="0">
      <root>
        <mxCell id="0" />
        <mxCell id="1" parent="0" />
        <mxCell id="JPyvImQNKkmGKCgc1hnK-1" value="Pengguna" style="rounded=0;whiteSpace=wrap;html=1;" vertex="1" parent="1">
          <mxGeometry x="-539" y="279" width="95" height="31" as="geometry" />
        </mxCell>
        <mxCell id="JPyvImQNKkmGKCgc1hnK-2" value="#&lt;u&gt;ID&lt;/u&gt;" style="ellipse;whiteSpace=wrap;html=1;" vertex="1" parent="1">
          <mxGeometry x="-572" y="228" width="69" height="29" as="geometry" />
        </mxCell>
        <mxCell id="JPyvImQNKkmGKCgc1hnK-4" value="" style="endArrow=none;html=1;rounded=0;fontSize=12;startSize=8;endSize=8;curved=1;entryX=0.5;entryY=1;entryDx=0;entryDy=0;exitX=0.207;exitY=-0.006;exitDx=0;exitDy=0;exitPerimeter=0;" edge="1" parent="1" source="JPyvImQNKkmGKCgc1hnK-1" target="JPyvImQNKkmGKCgc1hnK-2">
          <mxGeometry width="50" height="50" relative="1" as="geometry">
            <mxPoint x="-417" y="294" as="sourcePoint" />
            <mxPoint x="-581" y="242" as="targetPoint" />
          </mxGeometry>
        </mxCell>
        <mxCell id="JPyvImQNKkmGKCgc1hnK-5" value="Username" style="ellipse;whiteSpace=wrap;html=1;" vertex="1" parent="1">
          <mxGeometry x="-531.5" y="196" width="80" height="29" as="geometry" />
        </mxCell>
        <mxCell id="JPyvImQNKkmGKCgc1hnK-6" value="" style="endArrow=none;html=1;rounded=0;fontSize=12;startSize=8;endSize=8;curved=1;entryX=0.5;entryY=1;entryDx=0;entryDy=0;exitX=0.5;exitY=0;exitDx=0;exitDy=0;" edge="1" parent="1" source="JPyvImQNKkmGKCgc1hnK-1" target="JPyvImQNKkmGKCgc1hnK-5">
          <mxGeometry width="50" height="50" relative="1" as="geometry">
            <mxPoint x="-417" y="294" as="sourcePoint" />
            <mxPoint x="-367" y="244" as="targetPoint" />
          </mxGeometry>
        </mxCell>
        <mxCell id="JPyvImQNKkmGKCgc1hnK-7" value="Password" style="ellipse;whiteSpace=wrap;html=1;" vertex="1" parent="1">
          <mxGeometry x="-658" y="279" width="96" height="34" as="geometry" />
        </mxCell>
        <mxCell id="JPyvImQNKkmGKCgc1hnK-8" value="" style="endArrow=none;html=1;rounded=0;fontSize=12;startSize=8;endSize=8;curved=1;entryX=1;entryY=0.5;entryDx=0;entryDy=0;" edge="1" parent="1" target="JPyvImQNKkmGKCgc1hnK-7">
          <mxGeometry width="50" height="50" relative="1" as="geometry">
            <mxPoint x="-539" y="296" as="sourcePoint" />
            <mxPoint x="-367" y="244" as="targetPoint" />
          </mxGeometry>
        </mxCell>
        <mxCell id="JPyvImQNKkmGKCgc1hnK-9" value="Email" style="ellipse;whiteSpace=wrap;html=1;" vertex="1" parent="1">
          <mxGeometry x="-583" y="341" width="73" height="31" as="geometry" />
        </mxCell>
        <mxCell id="JPyvImQNKkmGKCgc1hnK-10" value="" style="endArrow=none;html=1;rounded=0;fontSize=12;startSize=8;endSize=8;curved=1;entryX=0.25;entryY=1;entryDx=0;entryDy=0;exitX=0.5;exitY=0;exitDx=0;exitDy=0;" edge="1" parent="1" source="JPyvImQNKkmGKCgc1hnK-9" target="JPyvImQNKkmGKCgc1hnK-1">
          <mxGeometry width="50" height="50" relative="1" as="geometry">
            <mxPoint x="-417" y="294" as="sourcePoint" />
            <mxPoint x="-367" y="244" as="targetPoint" />
          </mxGeometry>
        </mxCell>
        <mxCell id="JPyvImQNKkmGKCgc1hnK-12" value="Role" style="ellipse;whiteSpace=wrap;html=1;" vertex="1" parent="1">
          <mxGeometry x="-525.5" y="379" width="68" height="31" as="geometry" />
        </mxCell>
        <mxCell id="JPyvImQNKkmGKCgc1hnK-13" value="" style="endArrow=none;html=1;rounded=0;fontSize=12;startSize=8;endSize=8;curved=1;entryX=0.5;entryY=1;entryDx=0;entryDy=0;exitX=0.5;exitY=0;exitDx=0;exitDy=0;" edge="1" parent="1" source="JPyvImQNKkmGKCgc1hnK-12" target="JPyvImQNKkmGKCgc1hnK-1">
          <mxGeometry width="50" height="50" relative="1" as="geometry">
            <mxPoint x="-417" y="294" as="sourcePoint" />
            <mxPoint x="-367" y="244" as="targetPoint" />
          </mxGeometry>
        </mxCell>
        <mxCell id="JPyvImQNKkmGKCgc1hnK-14" value="" style="rhombus;whiteSpace=wrap;html=1;" vertex="1" parent="1">
          <mxGeometry x="-320" y="258.5" width="83" height="72" as="geometry" />
        </mxCell>
        <mxCell id="JPyvImQNKkmGKCgc1hnK-15" value="" style="endArrow=none;html=1;rounded=0;fontSize=12;startSize=8;endSize=8;curved=1;entryX=0;entryY=0.5;entryDx=0;entryDy=0;exitX=1;exitY=0.5;exitDx=0;exitDy=0;" edge="1" parent="1" source="JPyvImQNKkmGKCgc1hnK-1" target="JPyvImQNKkmGKCgc1hnK-14">
          <mxGeometry width="50" height="50" relative="1" as="geometry">
            <mxPoint x="-417" y="294" as="sourcePoint" />
            <mxPoint x="-367" y="244" as="targetPoint" />
          </mxGeometry>
        </mxCell>
      </root>
    </mxGraphModel>
  </diagram>
</mxfile>
